{"title":"The.Only.Way.Is.Essex.S08E03.PDTV.XviD-W33D","uid":8216818,"size":278508692,"categoryP":"video","categoryS":"tv_shows","magnet":"?xt=urn:btih:f7af85aa9ec2a4623dcdd976d56fd6aa13a4eb26&amp;dn=The.Only.Way.Is.Essex.S08E03.PDTV.XviD-W33D&amp;tr=udp%3A%2F%2Ftracker.openbittorrent.com%3A80&amp;tr=udp%3A%2F%2Fopen.demonii.com%3A1337&amp;tr=udp%3A%2F%2Ftracker.coppersurfer.tk%3A6969&amp;tr=udp%3A%2F%2Fexodus.desync.com%3A6969","seeders":1,"leechers":0,"uploader":"shane1989","files":1,"time":1362357157,"description":"\nThe Only Way Is Essex is a British BAFTA award-winning reality television show based in Essex, England.\nIt shows &quot;real people in modified situations, saying unscripted lines but in a structured way.&quot;\nThe show is filmed just a few days in advance.\n\n\n\n\nGeneral\nComplete name                            : The.Only.Way.Is.Essex.S08E03.PDTV.XviD-W33D.avi\nFormat                                   : AVI\nFormat/Info                              : Audio Video Interleave\nFormat profile                           : OpenDML\nFormat settings                          : rec\nFile size                                : 266 MiB\nDuration                                 : 32mn 48s\nOverall bit rate mode                    : Variable\nOverall bit rate                         : 1 132 Kbps\nWriting application                      : AVI-Mux GUI 1.17.8.3, Feb 16 201019:42:50\n\nVideo\nID                                       : 0\nFormat                                   : MPEG-4 Visual\nFormat profile                           : Advanced Simple@L5\nFormat settings, BVOP                    : 2\nFormat settings, QPel                    : No\nFormat settings, GMC                     : No warppoints\nFormat settings, Matrix                  : Default (H.263)\nCodec ID                                 : XVID\nCodec ID/Hint                            : XviD\nDuration                                 : 32mn 48s\nBit rate                                 : 991 Kbps\nWidth                                    : 688 pixels\nHeight                                   : 384 pixels\nDisplay aspect ratio                     : 16:9\nFrame rate                               : 25.000 fps\nColor space                              : YUV\nChroma subsampling                       : 4:2:0\nBit depth                                : 8 bits\nScan type                                : Progressive\nCompression mode                         : Lossy\nBits/(Pixel*Frame)                       : 0.150\nStream size                              : 232 MiB (88%)\nWriting library                          : XviD 1.1.2 (UTC 2006-11-01)\n\nAudio\nID                                       : 1\nFormat                                   : MPEG Audio\nFormat version                           : Version 1\nFormat profile                           : Layer 3\nMode                                     : Joint stereo\nCodec ID                                 : 55\nCodec ID/Hint                            : MP3\nDuration                                 : 32mn 48s\nBit rate mode                            : Variable\nBit rate                                 : 128 Kbps\nChannel(s)                               : 2 channels\nSampling rate                            : 48.0 KHz\nCompression mode                         : Lossy\nStream size                              : 31.0 MiB (12%)\nAlignment                                : Aligned on interleaves\nInterleave, duration                     : 24 ms (0.60 video frame)\nInterleave, preload duration             : 214 ms\nWriting library                          : LAME3.90.\nEncoding settings                        : -m j -V 4 -q 2 -lowpass 17.6 --abr 128\n\n","torrent":{"xt":"urn:btih:f7af85aa9ec2a4623dcdd976d56fd6aa13a4eb26","amp;dn":"The.Only.Way.Is.Essex.S08E03.PDTV.XviD-W33D","amp;tr":["udp%3A%2F%2Ftracker.openbittorrent.com%3A80","udp%3A%2F%2Fopen.demonii.com%3A1337","udp%3A%2F%2Ftracker.coppersurfer.tk%3A6969","udp%3A%2F%2Fexodus.desync.com%3A6969"],"infoHash":"f7af85aa9ec2a4623dcdd976d56fd6aa13a4eb26","infoHashBuffer":{"type":"Buffer","data":[247,175,133,170,158,194,164,98,61,205,217,118,213,111,214,170,19,164,235,38]},"announce":[],"urlList":[]}}